<?xml version="1.0" encoding="utf-8"?><svg width="101" height="81" viewBox="0 0 101 81" xmlns="http://www.w3.org/2000/svg" xmlns:xlink="http://www.w3.org/1999/xlink"><svg id="burger" width="44" height="44" viewBox="0 0 44 44" xmlns="http://www.w3.org/2000/svg"><defs><style>.acls-1{fill:#e1ba6a}.acls-1,.acls-3{fill-rule:evenodd}.acls-2{opacity:.5}.acls-3{fill:none;stroke:#fff;stroke-linecap:round;stroke-width:2.5px}</style></defs><path id="aburger-base" class="acls-1" d="M676 968h31a12.988 12.988 0 0 1 13 13v18a12.987 12.987 0 0 1-13 13h-31v-44z" transform="translate(-676 -968)"/><g id="aburger-lines" class="acls-2"><path id="aLine_2" data-name="Line 2" class="acls-3" d="M702.647 985.636h-11.294" transform="translate(-676 -968)"/><path id="aLine_2_Copy" data-name="Line 2 Copy" class="acls-3" d="M702.647 994.364h-6.353" transform="translate(-676 -968)"/></g></svg><svg width="20" height="20" viewBox="0 0 20 20" id="close" x="80.25" xmlns="http://www.w3.org/2000/svg"><defs><style>.bcls-1{fill:#d0a03b;fill-rule:evenodd}</style></defs><path id="bclose" class="bcls-1" d="M5618.72 960l6.72-6.718a1.923 1.923 0 0 0-2.72-2.72l-6.72 6.718-6.72-6.719a1.923 1.923 0 0 0-2.72 2.72l6.72 6.719-6.72 6.718a1.924 1.924 0 0 0 1.36 3.283 1.894 1.894 0 0 0 1.36-.564l6.72-6.717 6.72 6.717a1.894 1.894 0 0 0 1.36.564 1.924 1.924 0 0 0 1.36-3.283z" transform="translate(-5606 -950)"/></svg><svg width="13" height="12" viewBox="0 0 13 12" id="pot" x="80.25" y="47.969" xmlns="http://www.w3.org/2000/svg"><defs><style>.ccls-1{fill:#d1d0cb;fill-rule:evenodd}</style></defs><path id="cpot" class="ccls-1" d="M3076 1624h13v3.16h-13V1624zm1.68 4.05l9.8-.08-1.49 8.02h-6.89z" transform="translate(-3076 -1624)"/></svg><svg width="13.97" height="13.969" viewBox="0 0 13.97 13.969" id="search-icon" x="80.25" y="34" xmlns="http://www.w3.org/2000/svg"><defs><style>.dcls-1{fill:#dad1a7;fill-rule:evenodd;opacity:.54}</style></defs><path id="dsearch-icon" class="dcls-1" d="M1986.62 995.97l-3.03-3.033a.288.288 0 0 1-.05-.042 5.743 5.743 0 1 0-4.8 2.585 5.671 5.671 0 0 0 3.15-.945c.02.017.03.036.05.052l3.03 3.033a1.167 1.167 0 1 0 1.65-1.65zm-7.88-2.48a3.75 3.75 0 1 1 3.75-3.75 3.751 3.751 0 0 1-3.75 3.75z" transform="translate(-1973 -984)"/></svg><svg width="36.24" height="36.24" viewBox="0 0 36.24 36.24" id="soc-fb" x="36.24" y="44" xmlns="http://www.w3.org/2000/svg"><defs><style>.ecls-1{fill:#d8a63d;stroke:#d8a63d;stroke-width:1px;fill-rule:evenodd}</style></defs><path id="efacebook" class="ecls-1" d="M5468.5 1562.37a17.63 17.63 0 1 0 17.63 17.63 17.643 17.643 0 0 0-17.63-17.63zm0 33.24a15.61 15.61 0 1 1 15.61-15.61 15.631 15.631 0 0 1-15.61 15.61zm4.09-25.18h-2.39a3.557 3.557 0 0 0-3.55 3.55v2.69h-2.23a1.01 1.01 0 0 0 0 2.02h2.23v9.33a1.005 1.005 0 1 0 2.01 0v-9.33h3.45a1.01 1.01 0 1 0 0-2.02h-3.45v-2.69a1.539 1.539 0 0 1 1.54-1.53h2.39a1.01 1.01 0 0 0 0-2.02z" transform="translate(-5450.38 -1561.88)"/></svg><svg width="36.25" height="36.24" viewBox="0 0 36.25 36.24" id="soc-link" x="44" xmlns="http://www.w3.org/2000/svg"><defs><style>.fcls-1{fill:#d8a63d;stroke:#d8a63d;stroke-width:1px;fill-rule:evenodd}</style></defs><path id="flinked-in" class="fcls-1" d="M5414.12 1562.37a17.63 17.63 0 1 0 17.62 17.63 17.652 17.652 0 0 0-17.62-17.63zm0 33.24a15.61 15.61 0 1 1 15.61-15.61 15.624 15.624 0 0 1-15.61 15.61zm-5.04-19.67a1.007 1.007 0 0 0-1.01 1.01v8.34a1.005 1.005 0 1 0 2.01 0v-8.34a1 1 0 0 0-1-1.01zm0-4.7a1.057 1.057 0 0 0-.72.29 1.005 1.005 0 1 0 1.43 0 1.052 1.052 0 0 0-.71-.29zm8.71 5.49a4.826 4.826 0 0 0-2.83.91v-.69a1.01 1.01 0 0 0-2.02 0v8.34a1.01 1.01 0 0 0 2.02 0v-3.72a2.83 2.83 0 1 1 5.66 0v3.94a1.005 1.005 0 1 0 2.01 0v-3.94a4.844 4.844 0 0 0-4.84-4.84z" transform="translate(-5396 -1561.88)"/></svg><svg width="36.24" height="36.24" viewBox="0 0 36.24 36.24" id="soc-twit" y="44" xmlns="http://www.w3.org/2000/svg"><defs><style>.gcls-1{fill:#d8a63d;stroke:#d8a63d;stroke-width:1px;fill-rule:evenodd}</style></defs><path id="gtwitter" class="gcls-1" d="M5360.5 1562.37a17.63 17.63 0 1 0 17.62 17.63 17.652 17.652 0 0 0-17.62-17.63zm0 33.24a15.61 15.61 0 1 1 15.61-15.61 15.624 15.624 0 0 1-15.61 15.61zm3.47-18.36a1.005 1.005 0 1 0 0-2.01h-5.94v-1.03a1.005 1.005 0 1 0-2.01 0v6.66a5.928 5.928 0 0 0 5.92 5.93h2.03a1.01 1.01 0 1 0 0-2.02h-2.03a3.916 3.916 0 0 1-3.91-3.91v-3.62h5.94z" transform="translate(-5342.38 -1561.88)"/></svg><svg width="10.03" height="14" viewBox="0 0 10.03 14" id="water" x="80.25" y="20" xmlns="http://www.w3.org/2000/svg"><defs><style>.hcls-1{fill:#81b5c0;fill-rule:evenodd}</style></defs><path id="hwater" class="hcls-1" d="M3086.05 1591.9a33.986 33.986 0 0 0-2.73-3.75.375.375 0 0 0-.31-.15.393.393 0 0 0-.32.15 34.19 34.19 0 0 0-2.72 3.75 10.742 10.742 0 0 0-1.97 5.19 5.011 5.011 0 0 0 10.02 0 10.811 10.811 0 0 0-1.97-5.19zm-2.36 8.28a3.824 3.824 0 0 1-.9.11 3.248 3.248 0 0 1-3.39-3.08 3.882 3.882 0 0 1 .33-1.43.209.209 0 0 1 .24-.12.188.188 0 0 1 .16.21c-.01.11-.02.22-.02.33a3.781 3.781 0 0 0 3.55 3.61.2.2 0 0 1 .19.17.193.193 0 0 1-.16.2zm-11.54 17.44" transform="translate(-3078 -1588)"/></svg><svg width="5.97" height="9.78" viewBox="0 0 5.97 9.78" id="year-next" x="90.28" y="20" xmlns="http://www.w3.org/2000/svg"><defs><style>.icls-1{fill:#f2b83d;fill-rule:evenodd}</style></defs><path id="inext-active" class="icls-1" d="M1040.22 1047.79a1.21 1.21 0 0 1-.87-2.05l2.71-2.85-2.71-2.84a1.213 1.213 0 0 1 1.75-1.68l3.51 3.68a1.211 1.211 0 0 1 .01 1.67l-3.52 3.69a1.188 1.188 0 0 1-.88.38z" transform="translate(-1039 -1038)"/></svg><svg width="5.97" height="9.78" viewBox="0 0 5.97 9.78" id="year-next-disabled" x="94.22" y="34" xmlns="http://www.w3.org/2000/svg"><defs><style>.jcls-1{fill:#dad1a7;fill-rule:evenodd}</style></defs><path id="jnext-inactive" class="jcls-1" d="M1040.22 1047.79a1.21 1.21 0 0 1-.87-2.05l2.71-2.85-2.71-2.84a1.213 1.213 0 0 1 1.75-1.68l3.51 3.68a1.211 1.211 0 0 1 .01 1.67l-3.52 3.69a1.188 1.188 0 0 1-.88.38z" transform="translate(-1039 -1038)"/></svg><svg width="5.909" height="9.78" viewBox="0 0 5.909 9.78" id="year-prev" x="93.25" y="47.969" xmlns="http://www.w3.org/2000/svg"><defs><style>.kcls-1{fill:#f2b83d;fill-rule:evenodd}</style></defs><path id="kprev-active" class="kcls-1" d="M1003.74 1047.79a1.2 1.2 0 0 0 .83-.33 1.217 1.217 0 0 0 .05-1.72l-2.72-2.85 2.71-2.84a1.213 1.213 0 0 0-1.75-1.68l-3.512 3.68a1.207 1.207 0 0 0 0 1.67l3.515 3.69a1.221 1.221 0 0 0 .877.38z" transform="translate(-999.031 -1038)"/></svg><svg width="5.909" height="9.78" viewBox="0 0 5.909 9.78" id="year-prev-disabled" x="80.25" y="59.969" xmlns="http://www.w3.org/2000/svg"><defs><style>.lcls-1{fill:#dad1a7;fill-rule:evenodd}</style></defs><path id="lprev-inactive" class="lcls-1" d="M1003.74 1047.79a1.2 1.2 0 0 0 .83-.33 1.217 1.217 0 0 0 .05-1.72l-2.72-2.85 2.71-2.84a1.213 1.213 0 0 0-1.75-1.68l-3.512 3.68a1.207 1.207 0 0 0 0 1.67l3.515 3.69a1.221 1.221 0 0 0 .877.38z" transform="translate(-999.031 -1038)"/></svg></svg>