<?xml version="1.0" encoding="utf-8"?><svg width="64" height="44" viewBox="0 0 64 44" xmlns="http://www.w3.org/2000/svg" xmlns:xlink="http://www.w3.org/1999/xlink"><svg id="burger" width="44" height="44" viewBox="0 0 44 44" xmlns="http://www.w3.org/2000/svg"><defs><style>.acls-1{fill:#e1ba6a}.acls-1,.acls-3{fill-rule:evenodd}.acls-2{opacity:.5}.acls-3{fill:none;stroke:#fff;stroke-linecap:round;stroke-width:2.5px}</style></defs><path id="aburger-base" class="acls-1" d="M676 968h31a12.988 12.988 0 0 1 13 13v18a12.987 12.987 0 0 1-13 13h-31v-44z" transform="translate(-676 -968)"/><g id="aburger-lines" class="acls-2"><path id="aLine_2" data-name="Line 2" class="acls-3" d="M702.647 985.636h-11.294" transform="translate(-676 -968)"/><path id="aLine_2_Copy" data-name="Line 2 Copy" class="acls-3" d="M702.647 994.364h-6.353" transform="translate(-676 -968)"/></g></svg><svg width="20" height="20" viewBox="0 0 20 20" id="close" x="44" xmlns="http://www.w3.org/2000/svg"><defs><style>.bcls-1{fill:#d0a03b;fill-rule:evenodd}</style></defs><path id="bclose" class="bcls-1" d="M5618.72 960l6.72-6.718a1.923 1.923 0 0 0-2.72-2.72l-6.72 6.718-6.72-6.719a1.923 1.923 0 0 0-2.72 2.72l6.72 6.719-6.72 6.718a1.924 1.924 0 0 0 1.36 3.283 1.894 1.894 0 0 0 1.36-.564l6.72-6.717 6.72 6.717a1.894 1.894 0 0 0 1.36.564 1.924 1.924 0 0 0 1.36-3.283z" transform="translate(-5606 -950)"/></svg><svg width="13.97" height="13.969" viewBox="0 0 13.97 13.969" id="search-icon" x="44" y="20" xmlns="http://www.w3.org/2000/svg"><defs><style>.ccls-1{fill:#dad1a7;fill-rule:evenodd;opacity:.54}</style></defs><path id="csearch-icon" class="ccls-1" d="M1986.62 995.97l-3.03-3.033a.288.288 0 0 1-.05-.042 5.743 5.743 0 1 0-4.8 2.585 5.671 5.671 0 0 0 3.15-.945c.02.017.03.036.05.052l3.03 3.033a1.167 1.167 0 1 0 1.65-1.65zm-7.88-2.48a3.75 3.75 0 1 1 3.75-3.75 3.751 3.751 0 0 1-3.75 3.75z" transform="translate(-1973 -984)"/></svg><svg width="5.97" height="9.78" viewBox="0 0 5.97 9.78" id="year-next" x="57.97" y="20" xmlns="http://www.w3.org/2000/svg"><defs><style>.dcls-1{fill:#f2b83d;fill-rule:evenodd}</style></defs><path id="dnext-active" class="dcls-1" d="M1040.22 1047.79a1.21 1.21 0 0 1-.87-2.05l2.71-2.85-2.71-2.84a1.213 1.213 0 0 1 1.75-1.68l3.51 3.68a1.211 1.211 0 0 1 .01 1.67l-3.52 3.69a1.188 1.188 0 0 1-.88.38z" transform="translate(-1039 -1038)"/></svg><svg width="5.97" height="9.78" viewBox="0 0 5.97 9.78" id="year-next-disabled" x="44" y="33.969" xmlns="http://www.w3.org/2000/svg"><defs><style>.ecls-1{fill:#dad1a7;fill-rule:evenodd}</style></defs><path id="enext-inactive" class="ecls-1" d="M1040.22 1047.79a1.21 1.21 0 0 1-.87-2.05l2.71-2.85-2.71-2.84a1.213 1.213 0 0 1 1.75-1.68l3.51 3.68a1.211 1.211 0 0 1 .01 1.67l-3.52 3.69a1.188 1.188 0 0 1-.88.38z" transform="translate(-1039 -1038)"/></svg><svg width="5.909" height="9.78" viewBox="0 0 5.909 9.78" id="year-prev" x="49.97" y="33.969" xmlns="http://www.w3.org/2000/svg"><defs><style>.fcls-1{fill:#f2b83d;fill-rule:evenodd}</style></defs><path id="fprev-active" class="fcls-1" d="M1003.74 1047.79a1.2 1.2 0 0 0 .83-.33 1.217 1.217 0 0 0 .05-1.72l-2.72-2.85 2.71-2.84a1.213 1.213 0 0 0-1.75-1.68l-3.512 3.68a1.207 1.207 0 0 0 0 1.67l3.515 3.69a1.221 1.221 0 0 0 .877.38z" transform="translate(-999.031 -1038)"/></svg><svg width="5.909" height="9.78" viewBox="0 0 5.909 9.78" id="year-prev-disabled" x="55.879" y="33.969" xmlns="http://www.w3.org/2000/svg"><defs><style>.gcls-1{fill:#dad1a7;fill-rule:evenodd}</style></defs><path id="gprev-inactive" class="gcls-1" d="M1003.74 1047.79a1.2 1.2 0 0 0 .83-.33 1.217 1.217 0 0 0 .05-1.72l-2.72-2.85 2.71-2.84a1.213 1.213 0 0 0-1.75-1.68l-3.512 3.68a1.207 1.207 0 0 0 0 1.67l3.515 3.69a1.221 1.221 0 0 0 .877.38z" transform="translate(-999.031 -1038)"/></svg></svg>