<svg xmlns="http://www.w3.org/2000/svg" width="36.24" height="36.24" viewBox="0 0 36.24 36.24">
  <metadata><?xpacket begin="﻿" id="W5M0MpCehiHzreSzNTczkc9d"?>
<x:xmpmeta xmlns:x="adobe:ns:meta/" x:xmptk="Adobe XMP Core 5.6-c140 79.160451, 2017/05/06-01:08:21        ">
   <rdf:RDF xmlns:rdf="http://www.w3.org/1999/02/22-rdf-syntax-ns#">
      <rdf:Description rdf:about=""/>
   </rdf:RDF>
</x:xmpmeta>
                                                                                                    
                                                                                                    
                                                                                                    
                                                                                                    
                                                                                                    
                                                                                                    
                                                                                                    
                                                                                                    
                                                                                                    
                                                                                                    
                                                                                                    
                                                                                                    
                                                                                                    
                                                                                                    
                                                                                                    
                                                                                                    
                                                                                                    
                                                                                                    
                                                                                                    
                                                                                                    
                           
<?xpacket end="w"?></metadata>
<defs>
    <style>
      .cls-1 {
        fill: #d8a63d;
        stroke: #d8a63d;
        stroke-width: 1px;
        fill-rule: evenodd;
      }
    </style>
  </defs>
  <path id="twitter" class="cls-1" d="M5360.5,1562.37a17.63,17.63,0,1,0,17.62,17.63A17.652,17.652,0,0,0,5360.5,1562.37Zm0,33.24a15.61,15.61,0,1,1,15.61-15.61A15.624,15.624,0,0,1,5360.5,1595.61Zm3.47-18.36a1.005,1.005,0,1,0,0-2.01h-5.94v-1.03a1.005,1.005,0,1,0-2.01,0v6.66a5.928,5.928,0,0,0,5.92,5.93h2.03a1.01,1.01,0,1,0,0-2.02h-2.03a3.916,3.916,0,0,1-3.91-3.91v-3.62h5.94Z" transform="translate(-5342.38 -1561.88)"/>
</svg>
