<svg xmlns="http://www.w3.org/2000/svg" width="36.25" height="36.24" viewBox="0 0 36.25 36.24">
  <metadata><?xpacket begin="﻿" id="W5M0MpCehiHzreSzNTczkc9d"?>
<x:xmpmeta xmlns:x="adobe:ns:meta/" x:xmptk="Adobe XMP Core 5.6-c140 79.160451, 2017/05/06-01:08:21        ">
   <rdf:RDF xmlns:rdf="http://www.w3.org/1999/02/22-rdf-syntax-ns#">
      <rdf:Description rdf:about=""/>
   </rdf:RDF>
</x:xmpmeta>
                                                                                                    
                                                                                                    
                                                                                                    
                                                                                                    
                                                                                                    
                                                                                                    
                                                                                                    
                                                                                                    
                                                                                                    
                                                                                                    
                                                                                                    
                                                                                                    
                                                                                                    
                                                                                                    
                                                                                                    
                                                                                                    
                                                                                                    
                                                                                                    
                                                                                                    
                                                                                                    
                           
<?xpacket end="w"?></metadata>
<defs>
    <style>
      .cls-1 {
        fill: #d8a63d;
        stroke: #d8a63d;
        stroke-width: 1px;
        fill-rule: evenodd;
      }
    </style>
  </defs>
  <path id="linked-in" class="cls-1" d="M5414.12,1562.37a17.63,17.63,0,1,0,17.62,17.63A17.652,17.652,0,0,0,5414.12,1562.37Zm0,33.24a15.61,15.61,0,1,1,15.61-15.61A15.624,15.624,0,0,1,5414.12,1595.61Zm-5.04-19.67a1.007,1.007,0,0,0-1.01,1.01v8.34a1.005,1.005,0,1,0,2.01,0v-8.34A1,1,0,0,0,5409.08,1575.94Zm0-4.7a1.057,1.057,0,0,0-.72.29,1.005,1.005,0,1,0,1.43,0A1.052,1.052,0,0,0,5409.08,1571.24Zm8.71,5.49a4.826,4.826,0,0,0-2.83.91v-0.69a1.01,1.01,0,0,0-2.02,0v8.34a1.01,1.01,0,0,0,2.02,0v-3.72a2.83,2.83,0,1,1,5.66,0v3.94a1.005,1.005,0,1,0,2.01,0v-3.94A4.844,4.844,0,0,0,5417.79,1576.73Z" transform="translate(-5396 -1561.88)"/>
</svg>
