<svg xmlns="http://www.w3.org/2000/svg" width="36.24" height="36.24" viewBox="0 0 36.24 36.24">
  <metadata><?xpacket begin="﻿" id="W5M0MpCehiHzreSzNTczkc9d"?>
<x:xmpmeta xmlns:x="adobe:ns:meta/" x:xmptk="Adobe XMP Core 5.6-c140 79.160451, 2017/05/06-01:08:21        ">
   <rdf:RDF xmlns:rdf="http://www.w3.org/1999/02/22-rdf-syntax-ns#">
      <rdf:Description rdf:about=""/>
   </rdf:RDF>
</x:xmpmeta>
                                                                                                    
                                                                                                    
                                                                                                    
                                                                                                    
                                                                                                    
                                                                                                    
                                                                                                    
                                                                                                    
                                                                                                    
                                                                                                    
                                                                                                    
                                                                                                    
                                                                                                    
                                                                                                    
                                                                                                    
                                                                                                    
                                                                                                    
                                                                                                    
                                                                                                    
                                                                                                    
                           
<?xpacket end="w"?></metadata>
<defs>
    <style>
      .cls-1 {
        fill: #d8a63d;
        stroke: #d8a63d;
        stroke-width: 1px;
        fill-rule: evenodd;
      }
    </style>
  </defs>
  <path id="facebook" class="cls-1" d="M5468.5,1562.37a17.63,17.63,0,1,0,17.63,17.63A17.643,17.643,0,0,0,5468.5,1562.37Zm0,33.24a15.61,15.61,0,1,1,15.61-15.61A15.631,15.631,0,0,1,5468.5,1595.61Zm4.09-25.18h-2.39a3.557,3.557,0,0,0-3.55,3.55v2.69h-2.23a1.01,1.01,0,0,0,0,2.02h2.23v9.33a1.005,1.005,0,1,0,2.01,0v-9.33h3.45a1.01,1.01,0,1,0,0-2.02h-3.45v-2.69a1.539,1.539,0,0,1,1.54-1.53h2.39A1.01,1.01,0,0,0,5472.59,1570.43Z" transform="translate(-5450.38 -1561.88)"/>
</svg>
