<svg xmlns="http://www.w3.org/2000/svg" width="10.03" height="14" viewBox="0 0 10.03 14">
  <metadata><?xpacket begin="﻿" id="W5M0MpCehiHzreSzNTczkc9d"?>
<x:xmpmeta xmlns:x="adobe:ns:meta/" x:xmptk="Adobe XMP Core 5.6-c140 79.160451, 2017/05/06-01:08:21        ">
   <rdf:RDF xmlns:rdf="http://www.w3.org/1999/02/22-rdf-syntax-ns#">
      <rdf:Description rdf:about=""/>
   </rdf:RDF>
</x:xmpmeta>
                                                                                                    
                                                                                                    
                                                                                                    
                                                                                                    
                                                                                                    
                                                                                                    
                                                                                                    
                                                                                                    
                                                                                                    
                                                                                                    
                                                                                                    
                                                                                                    
                                                                                                    
                                                                                                    
                                                                                                    
                                                                                                    
                                                                                                    
                                                                                                    
                                                                                                    
                                                                                                    
                           
<?xpacket end="w"?></metadata>
<defs>
    <style>
      .cls-1 {
        fill: #81b5c0;
        fill-rule: evenodd;
      }
    </style>
  </defs>
  <path id="water" class="cls-1" d="M3086.05,1591.9a33.986,33.986,0,0,0-2.73-3.75,0.375,0.375,0,0,0-.31-0.15,0.393,0.393,0,0,0-.32.15,34.19,34.19,0,0,0-2.72,3.75,10.742,10.742,0,0,0-1.97,5.19,5.011,5.011,0,0,0,10.02,0A10.811,10.811,0,0,0,3086.05,1591.9Zm-2.36,8.28a3.824,3.824,0,0,1-.9.11,3.248,3.248,0,0,1-3.39-3.08,3.882,3.882,0,0,1,.33-1.43,0.209,0.209,0,0,1,.24-0.12,0.188,0.188,0,0,1,.16.21c-0.01.11-.02,0.22-0.02,0.33a3.781,3.781,0,0,0,3.55,3.61,0.2,0.2,0,0,1,.19.17A0.193,0.193,0,0,1,3083.69,1600.18Zm-11.54,17.44" transform="translate(-3078 -1588)"/>
</svg>
